PathFileType	4	(X/Y/Z)	C:\Users\°ÂÌØÂü\Desktop\20210112\bx_y_10_901-Unnamed.trc
DataRate	CameraRate	NumFrames	NumMarkers	Units	OrigDataRate	OrigDataStartFrame	OrigNumFrames
50.00	50.00	       10	0	mm	50.00	332	       530
Frame#	Time	
		

332	6.620	-164.88368	119.51515	1280.84045	-889.44397	-68.85053	694.14618	-795.49243	-21.70937	791.69672				-893.59070	281.28424	723.14539	-871.39191	275.33896	853.27490							-864.03265	244.71136	554.87970	-880.26556	257.62891	474.74060	-518.15625	-72.54383	143.40929	-405.32767	265.89639	1142.53064	-606.89636	18.17058	168.55563	-679.95984	50.07912	165.90956	-724.56000	159.83313	222.94858	-779.44592	229.00990	199.23668	-597.82813	223.54324	173.70532	-882.58575	296.13757	144.56622	-562.43066	257.01529	164.22714	-875.36237	-81.81088	849.26501	-628.27576	307.28085	160.75108	-528.51105	303.89456	146.44067	-666.78131	301.19104	157.05070	-395.82513	-58.27885	1123.48792	-776.25671	-17.90308	198.82961	-800.31042	44.65398	170.69424	-801.88416	178.79724	179.52010	-868.53772	-48.86432	461.96936	-563.99945	-36.28106	164.15176	-664.25146	-71.49272	159.04195	-876.02838	-78.54763	141.55200	-973.90857	80.43604	1088.77747	-786.92664	4.99552	521.26611	-850.44012	-38.94821	550.49377	-801.86487	209.77890	796.18799	-622.29681	-81.05634	155.97253	-883.78607	250.44142	611.54834	-854.19366	-43.19562	600.61426	-797.51459	205.47498	529.87128	-679.25275	176.68274	163.65672	
333	6.640	-162.73434	120.35577	1263.66626	-889.20496	-69.62431	694.60553	-797.29285	-20.82608	791.39148				-896.02698	282.38062	722.50348	-873.09619	277.40585	853.21667							-865.48492	245.56438	554.27704	-880.88464	258.28680	474.52390	-518.16272	-72.41710	143.39572	-402.00632	265.29437	1127.06897	-606.86780	18.39098	168.57086	-680.01129	49.86924	165.93588	-724.49719	160.21713	222.73036	-779.24097	229.35912	198.84196	-598.33868	223.46449	173.76627	-882.63641	296.19785	144.62160	-562.63129	257.02960	164.57846	-877.56543	-81.52997	848.60840	-628.28284	307.61642	160.53183	-528.22974	303.93640	146.24617	-667.51624	300.23853	156.07098	-393.00317	-56.42535	1108.12720	-775.96906	-17.89863	198.66893	-800.33740	44.30008	170.54201	-802.14636	179.25279	179.31023	-869.55475	-49.29546	461.50729	-564.00824	-36.17209	164.21490	-664.08923	-71.59174	158.99075	-876.03320	-78.59757	141.50241	-973.97986	80.58501	1088.98523	-787.50031	4.90580	521.71521	-851.25043	-39.16391	550.44995	-803.58105	210.40285	795.21405	-622.53668	-81.25499	155.93497	-885.15063	250.90990	610.09082	-855.03882	-43.56332	600.20447	-799.12604	205.88771	529.77167	-679.25275	176.68274	163.65672	
334	6.660	-161.76292	120.93312	1246.69714	-891.07739	-70.58135	693.84589	-799.66193	-20.12686	790.67346	-667.21448	300.76099	156.64694	-897.87726	283.10019	722.05725	-875.75574	278.21561	853.00787	-734.10126	65.35702	221.97348				-866.39703	245.25883	553.78027	-881.22540	258.46921	474.25958	-518.32220	-72.41463	143.16249	-399.46158	265.24481	1111.68762	-606.96820	18.28284	168.64317	-680.10199	49.79496	166.11407	-724.55835	160.30629	222.70569	-779.26703	229.34969	199.09215	-597.67126	223.67233	173.62544	-882.44348	296.09494	144.68474	-562.53290	257.03583	164.49284	-879.62677	-82.06635	848.91595	-627.84491	307.08853	159.51299	-528.16864	304.13965	146.35794				-390.49152	-54.11480	1092.38147	-776.09216	-18.32860	198.84637	-800.67590	44.01218	170.80711	-802.23352	179.28148	179.28784	-870.13428	-49.37584	461.57593	-564.03754	-36.09226	164.21915	-664.10260	-71.51675	158.82678	-876.03320	-78.59757	141.50241	-973.81708	80.29421	1089.90076	-788.82764	5.02569	521.38770	-852.38971	-39.12228	550.05841	-805.68134	211.20238	795.14838	-622.35706	-81.14146	155.83685	-886.11029	250.68375	610.24457	-855.92920	-43.29881	599.50024	-799.66913	206.13478	529.39594	-679.25275	176.68274	163.65672	
335	6.680	-160.33159	121.04744	1230.29456	-891.69019	-70.21490	693.91589	-801.68414	-19.64405	791.20673	-666.83228	301.02457	157.32491	-899.71002	283.15051	721.13556	-877.65430	278.61722	852.37988	-734.10126	65.35702	221.97348	-807.44775	212.47151	795.61688	-866.97217	245.76830	553.89221	-882.09363	258.08417	473.90762	-518.11371	-72.59234	143.16986	-396.99521	265.12665	1096.75525	-606.98804	18.53917	168.62596	-680.30548	49.84686	166.18340	-724.81683	159.60799	222.91328	-779.16187	229.04648	198.95329	-597.86115	223.01128	173.45694	-882.56720	296.13278	144.69489	-562.23981	257.00024	164.03175	-881.84015	-81.74396	848.33270	-628.18268	307.43335	160.59953	-528.32898	304.21335	146.37411				-387.26517	-52.43855	1076.81311	-776.16730	-18.30049	198.93816	-800.91516	43.79023	170.82016	-802.13428	179.16273	179.33636	-870.66632	-49.20811	461.58966	-564.37659	-35.70373	164.04259	-664.01166	-71.65572	159.07437	-876.05151	-78.64049	141.43311	-974.05597	80.27029	1090.45862	-789.39642	5.38782	521.12988	-852.97162	-38.84687	549.92316				-622.54779	-80.76794	155.34605							-800.75360	206.13553	529.21533	-679.25275	176.68274	163.65672	
336	6.700	-159.37746	121.42961	1214.35620	-893.48157	-69.93774	693.23511	-803.08051	-19.35581	790.92828	-667.04883	300.53403	157.23962	-901.51105	283.64893	720.91083	-879.68982	279.26752	852.36340	-733.95563	65.41893	222.13354	-809.73181	211.70303	794.38403	-868.75757	245.44542	553.00299	-883.39825	258.01062	473.02509	-518.17438	-72.45876	142.88930	-393.96942	264.48935	1081.40540	-606.90497	18.80672	168.45509	-680.23242	49.51252	165.71649	-725.14606	159.39473	223.01212	-779.01581	228.80135	198.75633	-597.97467	222.67558	173.31757	-882.37628	296.02225	144.68523	-562.31866	256.90240	164.20142	-883.95642	-81.48989	847.84125	-628.11469	307.34656	160.78694	-528.38062	304.18268	146.28413				-384.62460	-49.82516	1061.72412	-776.00269	-18.09919	198.86977	-800.70062	43.86440	170.77728	-802.15887	178.85674	179.26003	-871.31805	-48.83194	461.29205	-564.38147	-35.67239	164.06122	-664.00354	-71.36010	159.05460	-876.02838	-78.54763	141.55200	-973.93262	80.44830	1090.29443	-789.81000	5.61942	521.66919	-853.83722	-38.60503	549.73553				-622.62451	-81.34316	156.25024							-802.05017	206.14204	529.01459	-679.08545	176.43361	163.76086	
337	6.720	-158.36362	121.72227	1198.53455	-894.43353	-69.43214	692.71753	-804.68542	-19.40539	790.42114	-666.99896	300.61356	157.08870	-903.49945	283.82257	720.17847	-881.51367	279.24936	851.18335	-733.95563	65.41893	222.13354	-811.68848	212.32556	793.49084	-869.67920	245.66411	552.84473	-884.08325	258.47754	472.75595	-518.17963	-72.35200	143.00166	-391.38455	263.59967	1066.21741	-606.61438	19.14819	168.36145	-679.95984	50.07912	165.90956	-725.09375	159.56876	223.22304	-779.26605	229.17445	198.63176	-597.97467	222.67558	173.31757	-882.53766	296.18567	144.65939	-562.75482	256.65985	164.37978	-885.90228	-81.51120	847.39734	-628.27374	307.31219	161.02873	-528.34546	303.94919	146.35995							-775.78479	-17.78794	199.07906	-800.34320	44.08378	170.70662	-802.60327	178.62428	179.44077	-872.26819	-48.25021	460.82330	-564.18976	-35.44251	163.97821	-663.79803	-71.18926	159.27739	-876.15045	-78.55431	141.41328	-973.03601	80.97770	1090.13074	-791.40125	5.71348	521.12634	-854.80389	-38.18228	549.11499				-622.50586	-80.99422	156.22031							-802.59406	205.91425	528.88690	-679.25275	176.68274	163.65672	
338	6.740	-157.16875	121.48670	1183.02502	-896.10626	-69.82841	692.56598	-806.61530	-18.18044	789.24750	-666.65619	300.85504	157.27797	-904.56036	284.29175	719.94263	-882.82849	279.25723	850.79578	-733.95563	65.41893	222.13354	-812.90143	212.19298	792.99963	-870.28149	246.21860	552.98499	-884.40149	258.34583	472.40384	-518.38202	-72.60045	143.03249				-606.79047	19.18511	168.39397	-680.39526	50.17385	165.70432	-725.17188	159.88210	223.17368	-779.45905	229.44493	198.47737	-598.06506	222.80894	173.23688	-882.53668	296.19855	144.78439	-562.67877	256.80896	164.74208	-887.37494	-81.56435	846.82819	-628.18268	307.43335	160.59953	-528.28528	303.86353	146.25401							-775.78162	-17.83991	199.14259	-800.54572	44.12466	170.75957	-802.45703	178.96147	179.36801	-872.89337	-48.18646	460.60388	-564.39740	-35.09547	164.01765	-663.79620	-71.00101	159.24797	-876.02838	-78.54763	141.55200	-972.55054	80.90727	1091.37854	-792.05908	6.27530	520.54059	-855.47089	-38.10797	548.98792				-622.40674	-81.14449	156.09758							-802.83130	206.44072	529.25293	-679.25275	176.68274	163.65672	
339	6.760	-156.41716	121.96174	1168.69995	-896.26251	-70.27720	692.84442	-807.88593	-17.94834	788.69647	-666.47357	301.32700	157.83263	-905.35071	284.65887	719.95062	-883.66595	279.84128	850.62970	-734.10126	65.35702	221.97348	-813.67523	212.29984	792.64764	-870.52277	246.39323	553.12695	-884.45123	259.02182	472.62033	-518.26581	-72.61124	142.95497	-387.54141	262.41016	1037.72437	-606.94720	19.21712	167.90152	-680.16730	50.12383	165.61441	-725.22479	159.81541	223.37276	-779.29541	229.50690	198.38022	-597.98627	222.50368	173.36403	-882.47650	296.07236	144.68108	-562.44080	256.76236	164.20427	-888.55090	-81.72485	846.27777	-628.16803	307.30774	160.89734	-528.33337	303.86664	146.09264							-775.81165	-17.95843	198.99699	-800.65308	44.08062	170.74715	-802.23352	179.28148	179.28784	-873.37866	-48.27138	460.70316	-564.32904	-35.34418	163.87868	-663.84491	-70.96384	159.46132	-876.02838	-78.54763	141.55200	-971.71631	81.14883	1091.54468	-792.63422	5.99731	521.01666	-856.40405	-37.87122	548.73340				-622.14185	-81.00768	156.03214							-803.55127	206.26888	528.85040	-679.25275	176.68274	163.65672	
340	6.780	-155.86823	121.90225	1154.77197	-896.95050	-70.25169	692.85364	-808.22736	-19.48561	790.29865	-666.35632	301.01157	158.03554	-906.07666	284.71802	719.85950	-884.65314	279.35904	849.99207	-733.75079	64.95053	222.48645	-813.88452	212.40797	792.66077	-870.76898	246.24730	552.68475	-884.60779	258.71863	472.52066	-518.27100	-72.50449	143.06735	-385.71301	261.30310	1023.40717	-606.92456	19.03509	167.94412	-680.20313	50.41522	165.19981	-725.11530	159.68951	223.29193	-779.18964	229.39641	198.56566	-597.98627	222.50368	173.36403	-882.55988	296.18518	144.73657	-562.30359	256.60785	164.07777	-889.68988	-82.03766	845.75470	-628.16803	307.30774	160.89734	-528.34546	303.94919	146.35995							-775.77094	-17.95245	199.08578	-800.26007	44.11184	170.61662	-802.23352	179.28148	179.28784	-873.51587	-47.88827	460.61646	-564.38544	-35.46546	163.97911	-663.82166	-70.80557	159.65649	-876.03320	-78.59757	141.50241	-970.33411	80.81857	1091.74646	-793.00549	6.45388	520.71631	-856.75024	-37.75684	548.77850				-622.23059	-80.84187	155.94377							-803.96069	206.13782	528.86969	-679.25275	176.68274	163.65672	
341	6.800	-155.38039	122.29695	1141.39771	-897.15680	-70.34774	692.69348	-808.65063	-19.79305	790.56323	-666.15216	300.62515	158.34998	-906.75269	283.79108	719.20685	-884.85303	279.74210	850.31000	-734.02057	65.81763	222.39940	-814.58270	211.96927	792.17493	-871.51453	246.32048	552.73706	-885.19611	258.70419	472.60431	-518.31055	-72.56051	143.18910				-606.70917	19.29935	167.94698	-680.16174	50.25906	165.40588	-725.29846	159.53596	223.47435	-779.09570	229.50212	198.61954	-597.73456	222.29933	173.41801	-882.62109	296.15103	144.60661	-562.38580	256.46680	163.95041	-890.55243	-82.97540	846.17676	-628.04749	307.00201	160.75246	-528.27570	304.09427	146.38022							-775.32721	-17.46679	198.91243	-800.35760	44.34477	170.75441	-802.29114	179.26332	179.12660	-873.53949	-47.75793	460.69608	-563.86627	-35.65298	164.15755	-663.82776	-70.69370	159.68178	-876.02838	-78.54763	141.55200	-968.65991	80.87762	1091.62524	-793.06732	6.66243	520.94043	-856.86633	-37.72641	549.15747				-622.10461	-80.98270	156.16785							-804.62506	206.08398	528.86768	-679.08545	176.43361	163.76086	
